<svg width="787" height="900" viewBox="0 0 787 900" fill="none" xmlns="http://www.w3.org/2000/svg">
<path d="M390.824 803.278L63.8916 189.937C57.1456 177.281 66.3168 162 80.6584 162H719.043C733.219 162 742.402 176.963 735.984 189.603L424.532 802.943C417.571 816.653 398.057 816.846 390.824 803.278Z" fill="url(#paint0_angular_203_70)" stroke="#009932" stroke-width="8"/>
<path d="M555.955 350.401C529.877 667.495 596.773 741.194 596.773 741.194C596.773 741.194 388.526 761.981 284.213 690.55C168.941 611.56 185.948 435.438 186.326 333.016C186.704 225.68 283.08 159.918 374.92 161.807C484.901 163.697 564.647 243.443 555.955 350.401Z" fill="black"/>
<path d="M310.292 527.278C352.999 664.472 501.531 763.115 501.531 763.115L571.45 757.824L310.292 527.278Z" fill="white"/>
<path d="M310.291 527.278C321.63 577.545 377.943 640.283 425.186 684.503C518.916 772.186 583.922 769.162 750.217 891.238C681.432 695.463 679.164 656.913 585.812 490.24C492.46 323.945 330.322 413.517 330.322 413.517C330.322 413.517 298.575 476.256 310.291 526.522V527.278Z" fill="black"/>
<path d="M411.58 287.284C411.58 287.284 396.463 243.443 343.551 243.821C230.168 244.577 234.703 440.729 407.423 440.351C557.089 439.974 555.577 253.647 468.272 252.892C429.722 252.136 411.58 287.284 411.58 287.284Z" fill="white"/>
<path d="M400.655 335.01C441.473 335.01 408.214 391.323 398.387 414C391.584 382.253 359.837 335.01 400.655 335.01ZM339.05 335.01C317.885 335.01 300.5 295.704 300.5 317.247C300.5 338.411 317.507 355.797 339.05 355.797C360.215 355.797 377.6 338.789 377.6 317.247C377.6 296.082 360.593 335.01 339.05 335.01ZM454.323 335.01C436.182 335.01 421.064 295.326 421.064 316.869C421.064 338.033 435.804 355.419 454.323 355.419C472.464 355.419 487.582 338.411 487.582 316.869C487.582 295.704 472.842 335.01 454.323 335.01Z" fill="black"/>
<defs>
<radialGradient id="paint0_angular_203_70" cx="0" cy="0" r="1" gradientUnits="userSpaceOnUse" gradientTransform="translate(399.5 498.75) rotate(-46.5971) scale(424.959 442.311)">
<stop offset="0.697917" stop-color="#009932"/>
<stop offset="1" stop-color="#C4C4C4" stop-opacity="0"/>
</radialGradient>
</defs>
</svg>
