<svg width="787" height="900" viewBox="0 0 787 900" fill="none" xmlns="http://www.w3.org/2000/svg">
<path d="M390.824 803.278L63.8916 189.937C57.1456 177.281 66.3168 162 80.6584 162H719.043C733.219 162 742.402 176.963 735.984 189.603L424.532 802.943C417.571 816.653 398.057 816.846 390.824 803.278Z" fill="url(#paint0_angular_203_70)" stroke="#009932" stroke-width="8"/>
<path d="M555.955 350.401C529.877 667.495 596.773 741.194 596.773 741.194C596.773 741.194 388.526 761.981 284.213 690.55C168.941 611.56 185.948 435.438 186.326 333.016C186.704 225.68 283.08 159.918 374.92 161.807C484.901 163.697 564.647 243.443 555.955 350.401Z" fill="black"/>
<path d="M310.292 527.278C352.999 664.472 501.531 763.115 501.531 763.115L571.45 757.824L310.292 527.278Z" fill="white"/>
<path d="M310.291 527.278C321.63 577.545 377.943 640.283 425.186 684.503C518.916 772.186 583.922 769.162 750.217 891.238C681.432 695.463 679.164 656.913 585.812 490.24C492.46 323.945 330.322 413.517 330.322 413.517C330.322 413.517 298.575 476.256 310.291 526.522V527.278Z" fill="black"/>
<path d="M411.58 287.284C411.58 287.284 396.463 243.443 343.551 243.821C230.168 244.577 234.703 440.729 407.423 440.351C557.089 439.974 555.577 253.647 468.272 252.892C429.722 252.136 411.58 287.284 411.58 287.284Z" fill="white"/>
<path d="M413.47 359.094C454.288 359.094 421.029 415.407 411.202 438.084C404.399 406.337 372.652 359.094 413.47 359.094ZM351.865 302.78C330.7 302.78 313.315 319.788 313.315 341.33C313.315 362.495 330.322 379.88 351.865 379.88C373.03 379.88 390.415 362.873 390.415 341.33C390.415 320.165 373.408 302.78 351.865 302.78ZM467.138 302.402C448.997 302.402 433.879 319.41 433.879 340.952C433.879 362.117 448.619 379.503 467.138 379.503C485.279 379.503 500.397 362.495 500.397 340.952C500.397 319.787 485.657 302.402 467.138 302.402V302.402Z" fill="black"/>
<defs>
<radialGradient id="paint0_angular_203_70" cx="0" cy="0" r="1" gradientUnits="userSpaceOnUse" gradientTransform="translate(399.5 498.75) rotate(-46.5971) scale(424.959 442.311)">
<stop offset="0.697917" stop-color="#009932"/>
<stop offset="1" stop-color="#C4C4C4" stop-opacity="0"/>
</radialGradient>
</defs>
</svg>
